<?xml version="1.0" encoding="UTF-8" standalone="no"?>
<svg width="105px" height="105px" viewBox="0 0 105 105" version="1.1" xmlns="http://www.w3.org/2000/svg" xmlns:xlink="http://www.w3.org/1999/xlink" xmlns:sketch="http://www.bohemiancoding.com/sketch/ns">
    <title>icon-skill-front-end</title>
    <description>Created with Sketch (http://www.bohemiancoding.com/sketch)</description>
    <defs></defs>
    <g id="Page-1" stroke="none" stroke-width="1" fill="none" fill-rule="evenodd" sketch:type="MSPage">
        <g id="Artboard-5" sketch:type="MSArtboardGroup" transform="translate(-16.000000, -15.000000)">
            <g id="skills" sketch:type="MSLayerGroup" transform="translate(18.000000, 17.000000)">
                <g id="front-end" sketch:type="MSShapeGroup">
                    <path d="M50.5,101 C78.3903812,101 101,78.3903812 101,50.5 C101,22.6096188 78.3903812,0 50.5,0 C22.6096188,0 0,22.6096188 0,50.5 C0,78.3903812 22.6096188,101 50.5,101 Z" id="bg" stroke="#253136" stroke-width="4"></path>
                    <path d="M48.6908468,61.633191 C42.4058399,69.0648616 36.1939801,76.2772352 34.6449737,77.1501504 C31.3813237,78.9893228 25.0330818,73.9908514 27.2590964,70.0176916 C28.4279692,67.931399 35.7974763,60.7726428 43.0221555,53.7126104 C43.1009836,54.7588094 43.3005681,55.6450602 43.6789597,56.3203821 C44.105594,57.0818038 44.6024233,57.5976032 48.6908468,61.633191 L48.6908468,61.633191 Z M56.8762339,51.9372031 C60.4009079,47.7841388 63.0688248,44.7217051 63.6058312,44.4489266 C65.3402378,43.5679151 68.7906971,44.1082923 73.1815654,40.9166871 C76.36597,38.6020283 78.5728501,34.5825995 77.9880808,30.6137292 C77.9880805,30.613729 71.3353429,34.6022438 71.3353429,34.6022438 L68.7250304,29.4701128 L75.4940325,25.6398579 C73.1413607,23.3679091 67.1276027,22.8103261 65.241212,23.6155029 C59.4010764,26.1082755 59.8239602,35.2599213 57.5748169,38.6248438 C56.5919374,40.0953208 53.7996194,43.0344501 50.2800415,46.5603182 C50.5494327,46.614826 50.8198841,46.6745952 51.0867552,46.7396967 C52.2951564,47.0344783 53.2137311,47.3765074 53.7826839,47.8383332 C54.2781788,48.2405323 54.3739179,48.3361014 56.8762339,51.9372031 L56.8762339,51.9372031 Z M66.3432365,32.2782938 C66.1169893,31.8144185 65.5606823,31.6202475 65.0902902,31.8496731 L62.4031889,33.1602599 C61.937453,33.3874145 61.7465329,33.9542152 61.969556,34.4114803 L64.2837905,39.1563641 C64.5100376,39.6202395 65.0663446,39.8144105 65.5367367,39.5849849 L68.223838,38.2743981 C68.689574,38.0472434 68.880494,37.4804428 68.6574709,37.0231776 L66.3432365,32.2782938 Z M30.7874948,73.8920664 C31.9295179,74.9949053 33.3887255,74.7580525 34.403325,73.707404 C35.4179244,72.6567555 35.6037075,71.1901707 34.4616843,70.0873317 C33.3196612,68.9844928 31.7625632,69.1268142 30.7479637,70.1774627 C29.7333642,71.2281112 29.6454716,72.7892274 30.7874948,73.8920664 Z M66.0926567,33.3810889 C65.8642957,32.9128794 65.3045219,32.7160498 64.838099,32.9435395 L63.2542565,33.7160311 C62.7897445,33.9425887 62.5963898,34.5018795 62.8266673,34.9740184 L64.4371729,38.2760442 C64.665534,38.7442537 65.2253077,38.9410833 65.6917306,38.7135936 L67.2755731,37.941102 C67.7400852,37.7145443 67.9334398,37.1552536 67.7031623,36.6831147 L66.0926567,33.3810889 Z M55.1153215,66.9502334 C58.2723321,70.7126123 62.3760652,76.8543343 62.3760652,76.8543343 C62.9561625,77.7082131 64.069077,77.8611688 64.8598253,77.1976521 L70.7327473,72.2696855 C71.5243929,71.605416 71.5717213,70.4872922 70.8286224,69.7579058 C70.8286224,69.7579058 65.0859866,64.2028275 62.3191814,60.9054772 C59.1621708,57.1430982 54.2634472,49.3363078 53.2240811,48.492642 C52.1847151,47.6489763 48.980916,47.2016555 48.980916,47.2016555 L37.665476,33.7164384 C36.4767544,32.2997752 37.5306786,26.0834287 47.3992925,24.813336 C44.8281709,22.9843483 39.3522006,22.5265566 34.6789349,24.3180445 C30.144578,26.0562809 27.2153979,30.0951007 26.7752559,30.9500186 C25.881488,32.6860444 26.4180503,35.408031 26.4180503,35.408031 L23.7258877,35.6260412 L19.7509752,38.9613889 L23.824311,43.8158015 L27.7992235,40.4804539 C27.7992235,40.4804539 28.3033641,38.422604 28.6814039,38.1053907 C29.0594438,37.7881776 32.2963115,37.5297568 32.6370281,37.9358066 C32.9777447,38.3418565 43.9524683,51.4210235 43.9524683,51.4210235 C43.9524683,51.4210235 43.6718091,54.3759737 44.4843569,55.8261414 C45.2969045,57.2763092 51.9583107,63.1878546 55.1153215,66.9502334 Z" id="Path-325" fill="#253136"></path>
                </g>
            </g>
        </g>
    </g>
</svg>